<?xml version="1.0"?>
<svg xmlns="http://www.w3.org/2000/svg" id="Layer_1" enable-background="new 0 0 512 512" height="512px" viewBox="0 0 512 512" width="512px" class=""><g><link xmlns="" type="text/css" id="dark-mode" rel="stylesheet"/><style xmlns="" type="text/css" id="dark-mode-custom-style"/><g><g id="XMLID_1_"><g><g id="XMLID_1207_"><g id="XMLID_1208_"><g id="XMLID_1209_"><g id="XMLID_1282_"><g id="XMLID_1296_"><g id="XMLID_1298_"><g id="XMLID_1311_"><g id="XMLID_1312_"><g id="XMLID_1313_"><g id="XMLID_1314_"><g id="XMLID_1315_"><g id="XMLID_1316_"><g id="XMLID_1321_"><g id="XMLID_1329_"><circle cx="256" cy="256" fill="#238cf8" r="256" data-original="#238CF8" class="" style="fill:#F8F8FF" data-old_color="#238cf8"/></g></g></g></g></g></g></g></g></g></g></g></g></g></g></g></g><path d="m512 256c0-8.901-.457-17.695-1.343-26.361l-115.53-115.53-13.127 2.391-51.606-52.887-243.818 349.6 84.258 84.258c26.646 9.399 55.304 14.529 85.166 14.529 141.385 0 256-114.615 256-256z" fill="#0768dd" data-original="#0768DD" class="" style="fill:#F8F8FF" data-old_color="#0768dd"/><g><g><g><path d="m181.607 114.109h213.521v235.264h-213.521z" fill="#cec5c0" data-original="#CEC5C0" class="" style="fill:#C7EBFF" data-old_color="#cec5c0"/><path d="m116.873 63.613h213.521v244.079h-213.521z" fill="#fff" data-original="#FFF" class="" data-old_color="#fff" style="fill:#C7EBFF"/><path d="m256 63.61h74.39v244.08h-74.39z" fill="#eae1dc" data-original="#EAE1DC" class="" style="fill:#65AEF8" data-old_color="#eae1dc"/></g><path d="m402.667 172.822h-190.884v-32.895c0-14.259-11.559-25.817-25.817-25.817h-88.203c-14.258 0-25.817 11.559-25.817 25.817v243.686c0 20.563 16.824 37.387 37.387 37.387h293.335c20.563 0 37.387-16.824 37.387-37.387v-173.404c-.001-20.563-16.825-37.387-37.388-37.387z" fill="#fedd55" data-original="#FEDD55" class="active-path" style="fill:#BE2C7F" data-old_color="#fedd55"/><path d="m440.05 210.21v173.4c0 20.57-16.82 37.39-37.38 37.39h-146.67v-248.18h146.67c20.56 0 37.38 16.83 37.38 37.39z" fill="#fcc63d" data-original="#FCC63D" class="" style="fill:#B02775" data-old_color="#fcc63d"/></g><path d="m278.506 369.576 54.024-146.064-146.064 54.024 33.427 33.427-35.208 35.208c-6.955 6.955-6.955 18.231 0 25.185 6.955 6.955 18.231 6.955 25.185 0l35.208-35.208z" fill="#776d6b" data-original="#776D6B" class="" style="fill:#000000" data-old_color="#776d6b"/><path d="m332.53 223.51-2.14 5.79-28.99 78.39-22.89 61.89-22.51-22.51v-95.25l74.39-27.52z" fill="#57555c" data-original="#57555C" class="" style="fill:#000000" data-old_color="#57555c"/></g></g></g> </svg>
