<?xml version="1.0"?>
<svg xmlns="http://www.w3.org/2000/svg" xmlns:xlink="http://www.w3.org/1999/xlink" version="1.1" id="Capa_1" x="0px" y="0px" viewBox="0 0 512 512" style="enable-background:new 0 0 512 512;" xml:space="preserve" width="512px" height="512px" class=""><g><link xmlns="" type="text/css" id="dark-mode" rel="stylesheet"/><style xmlns="" type="text/css" id="dark-mode-custom-style"/><circle style="fill:#F8F8FF" cx="256" cy="256" r="256" data-original="#B9EAFF" class="" data-old_color="#B9EAFF"/><path style="fill:#F8F8FF" d="M511.918,262.47L446.448,197H65.553l34.69,34.69l-33.935,92.97l187.311,187.31  c0.794,0.007,1.585,0.03,2.381,0.03C395.222,512.001,508.485,400.865,511.918,262.47z" data-original="#35CCFF" class="" data-old_color="#35CCFF"/><rect x="84.33" y="201" style="fill:#B02775" width="20" height="84.67" data-original="#666666" class="active-path" data-old_color="#666666"/><path style="fill:#1A1A1A;" d="M373.788,317.312c-69.32,53.771-166.255,53.771-235.575,0c0-44.457,0-88.915,0-133.372  c78.525,0,157.05,0,235.575,0C373.788,228.397,373.788,272.855,373.788,317.312z" data-original="#1A1A1A" class=""/><path d="M256,183.936v173.693c41.135,0.144,82.949-13.293,117.788-40.317c0-44.457,0-88.915,0-133.372  C334.311,183.94,294.834,183.94,256,183.936z" data-original="#000000" class=""/><polygon style="fill:#333333;" points="256,280.527 65.553,196.999 256,113.472 446.448,197 " data-original="#333333" class=""/><polygon style="fill:#1A1A1A;" points="256,280.527 446.448,197 256,113.472 " data-original="#1A1A1A" class=""/><polygon style="fill:#B02775" points="121.692,324.659 66.308,324.659 77,269 111,269 " data-original="#808080" class="" data-old_color="#808080"/></g> </svg>
