<?xml version="1.0"?>
<svg xmlns="http://www.w3.org/2000/svg" id="Capa_1" enable-background="new 0 0 512 512" height="512px" viewBox="0 0 512 512" width="512px" class=""><g><link xmlns="" type="text/css" id="dark-mode" rel="stylesheet"/><style xmlns="" type="text/css" id="dark-mode-custom-style"/><g><g><g><g><g><g><circle cx="256" cy="256" fill="#a3d4ff" r="256" data-original="#A3D4FF" class="active-path" style="fill:#F8F8FF" data-old_color="#a3d4ff"/></g></g></g></g></g><path d="m278.546 511.021c127.513-11.127 228.239-115.736 233.257-244.907l-176.451-176.453-191.489 95.601 45.326 45.326-6.685 3.015 91.808 91.808-43.072 138.303z" fill="#65b1fc" data-original="#65B1FC" class="" style="fill:#F8F8FF" data-old_color="#65b1fc"/><g><path d="m231.24 225.235h49.52v238.479h-49.52z" fill="#fff" data-original="#FFF" class=""/></g><g><path d="m256.12 225.235h24.64v238.479h-24.64z" fill="#e9edf5" data-original="#E9EDF5" class=""/></g><g><circle cx="256" cy="158.528" fill="#ff73a5" r="105.068" data-original="#FF73A5" class=""/></g><g><path d="m361.068 158.528c0-57.987-46.976-105.002-104.948-105.067v210.134c57.973-.065 104.948-47.079 104.948-105.067z" fill="#ff468c" data-original="#FF468C" class=""/></g><g><path d="m256 221.63c-49.287 0-93.882-16.175-119.292-43.269-7.367-7.855-6.971-20.196.884-27.563s20.195-6.972 27.563.884c17.903 19.089 52.713 30.948 90.845 30.948s72.942-11.859 90.845-30.948c7.367-7.855 19.708-8.251 27.563-.884s8.251 19.708.884 27.563c-25.41 27.094-70.005 43.269-119.292 43.269z" fill="#ff468c" data-original="#FF468C" class=""/></g><g><path d="m374.408 150.798c-7.855-7.367-20.196-6.971-27.563.884-17.884 19.069-52.64 30.922-90.724 30.947v39c49.239-.026 93.782-16.196 119.172-43.268 7.366-7.855 6.97-20.196-.885-27.563z" fill="#be1964" data-original="#BE1964" class=""/></g></g></g> </svg>
